Coordinates
version=1
nRows=11
nColumns=40
inDegrees=yes

Units are S.I. units (second, meters, Newtons, ...)
Angles are in degrees.

endheader
time	pelvis_tilt	pelvis_list	pelvis_rotation	pelvis_tx	pelvis_ty	pelvis_tz	hip_flexion_r	hip_adduction_r	hip_rotation_r	knee_angle_r	knee_angle_r_beta	ankle_angle_r	subtalar_angle_r	mtp_angle_r	hip_flexion_l	hip_adduction_l	hip_rotation_l	knee_angle_l	knee_angle_l_beta	ankle_angle_l	subtalar_angle_l	mtp_angle_l	lumbar_extension	lumbar_bending	lumbar_rotation	arm_flex_r	arm_add_r	arm_rot_r	elbow_flex_r	pro_sup_r	wrist_flex_r	wrist_dev_r	arm_flex_l	arm_add_l	arm_rot_l	elbow_flex_l	pro_sup_l	wrist_flex_l	wrist_dev_l
     40.16500000	     -4.49735593	     -4.78732905	     16.69293184	      0.98478623	      0.91980491	      0.53633483	      6.24330535	      4.45501915	    -20.68034113	     17.34062360	     17.34062360	     17.58594963	     -8.94691499	     -1.86677863	     28.46059468	     -8.75565281	      3.05454845	     17.40373792	     17.40373792	      5.30858875	      3.05420406	      6.12088774	     -8.52286065	      3.85835285	      4.22209171	     58.07177063	    -19.54090201	     -7.58727182	     76.13484580	     44.75612879	      0.00000000	      0.00000000	    -20.96516817	     -7.65704716	     24.42687175	     31.78938775	     42.85911466	      0.00000000	      0.00000000
     40.18707143	     -4.28546637	     -5.14438952	     16.80611725	      0.98515094	      0.91895429	      0.53282968	      5.56384145	      4.86644278	    -20.59032814	     16.96230461	     16.96230461	     17.61946073	     -9.20051655	     -1.94396918	     28.37063960	     -8.99074556	      3.03428540	     17.90108273	     17.90108273	      3.30897097	      3.53721045	      0.12283081	     -8.70939745	      4.06207482	      4.59383069	     57.63589239	    -19.46687793	     -8.38774425	     80.11565058	     44.70776389	      0.00000000	      0.00000000	    -20.23162244	     -7.82646804	     24.74686166	     30.98800744	     43.01053664	      0.00000000	      0.00000000
     40.20914286	     -4.22643372	     -5.29977703	     16.86199504	      0.98541373	      0.91835963	      0.52896615	      5.09297618	      4.92243445	    -20.56823068	     16.83620507	     16.83620507	     17.77607840	     -9.20738586	     -1.92485322	     28.42856912	     -8.88931404	      3.47905717	     18.77873237	     18.77873237	      3.27924434	      3.25675343	     -0.31401679	     -8.67919133	      3.98432506	      4.43272281	     57.91589594	    -18.98749130	     -8.22321914	     80.60199868	     44.69413028	      0.00000000	      0.00000000	    -19.98595149	     -8.02751477	     24.79155376	     30.94247736	     43.02793278	      0.00000000	      0.00000000
     40.23121429	     -4.18815181	     -5.42248253	     16.88047850	      0.98583415	      0.91790931	      0.52489003	      4.58955562	      4.93725079	    -20.50806940	     16.65014921	     16.65014921	     17.89648425	     -9.20588335	     -1.85689556	     28.50167282	     -8.75796788	      3.92671349	     19.74725947	     19.74725947	      3.36970467	      2.73378896	     -0.76218194	     -8.63449887	      3.89135464	      4.33405378	     57.99702915	    -18.61325566	     -8.08320441	     81.05965487	     44.68091750	      0.00000000	      0.00000000	    -19.66631697	     -8.32077435	     24.78975323	     30.91111399	     43.05031755	      0.00000000	      0.00000000
     40.25328571	     -4.25623585	     -5.40388566	     16.81762634	      0.98628321	      0.91768205	      0.52059957	      4.16259838	      4.74152803	    -20.39960818	     16.49605425	     16.49605425	     17.98421948	     -9.18856488	     -1.81155947	     28.44652648	     -8.50304402	      4.16457163	     20.42565488	     20.42565488	      3.61918079	      2.36511322	     -1.03014670	     -8.51144814	      3.62330167	      4.35362514	     57.97113213	    -18.30080981	     -7.94130928	     81.20800501	     44.67281985	      0.00000000	      0.00000000	    -19.17741745	     -8.77845940	     24.70835999	     30.92838294	     43.07185271	      0.00000000	      0.00000000
     40.27535714	     -4.20722983	     -5.44380100	     16.68154182	      0.98679388	      0.91761058	      0.51615564	      3.57418096	      4.64259307	    -20.27700639	     16.23429741	     16.23429741	     17.99420959	     -9.06702283	     -1.70975084	     28.53550494	     -8.31636077	      4.50963112	     21.58268123	     21.58268123	      3.95625144	      1.41459935	     -1.33930869	     -8.57100432	      3.45759846	      4.35537383	     57.91179691	    -18.03974872	     -7.79577821	     81.43542063	     44.66314257	      0.00000000	      0.00000000	    -18.77586392	     -9.18106967	     24.64461592	     30.91864612	     43.09346039	      0.00000000	      0.00000000
     40.29742857	     -4.19963412	     -5.67697114	     16.56218184	      0.98721732	      0.91753961	      0.51139758	      2.99741094	      4.73172676	    -20.24994075	     15.78775719	     15.78775719	     17.89679830	     -8.77879868	     -1.53926760	     28.69493856	     -8.16451794	      5.36698287	     22.65404283	     22.65404283	      4.44659227	     -0.19822998	     -1.41417958	     -8.53746320	      3.57886463	      4.37838209	     57.89564004	    -18.01120844	     -7.62025132	     81.81163617	     44.65248785	      0.00000000	      0.00000000	    -18.41171723	     -9.44040462	     24.60540080	     30.91429818	     43.12468255	      0.00000000	      0.00000000
     40.31950000	     -4.29355816	     -5.66542515	     16.32064754	      0.98763803	      0.91776462	      0.50649295	      2.48399805	      4.48201355	    -20.18562001	     15.42245788	     15.42245788	     17.80754941	     -8.36134982	     -1.41870831	     28.61177766	     -7.77570062	      5.97956169	     23.30291199	     23.30291199	      4.93169942	     -1.79323935	     -1.08909843	     -8.46172882	      3.41986406	      4.57777596	     57.72636438	    -18.08432604	     -7.32525318	     82.01125749	     44.64863436	      0.00000000	      0.00000000	    -17.85403921	     -9.87456570	     24.52346097	     30.89352047	     43.17892504	      0.00000000	      0.00000000
     40.34157143	     -4.44347214	     -5.61485933	     15.94193309	      0.98804802	      0.91806026	      0.50163984	      2.13932236	      4.13006008	    -19.95265319	     15.27879368	     15.27879368	     17.66142491	     -8.11531674	     -1.34500956	     28.51702214	     -7.53146641	      5.87821848	     23.85106568	     23.85106568	      5.43742081	     -2.40444629	     -1.23021494	     -8.37311028	      3.19735458	      4.70215889	     57.58910832	    -17.86510839	     -7.16282739	     81.96785935	     44.64652760	      0.00000000	      0.00000000	    -17.37108751	    -10.31789968	     24.42895362	     30.91438347	     43.20410510	      0.00000000	      0.00000000
     40.36364286	     -4.54354195	     -5.66140162	     15.57540583	      0.98838614	      0.91853065	      0.49656454	      1.68280672	      3.85933035	    -20.00760394	     14.96323200	     14.96323200	     17.43775233	     -7.36835366	     -1.34748074	     28.38426385	     -7.24102815	      6.28791663	     24.37774981	     24.37774981	      6.08353775	     -3.80209897	     -0.65470523	     -8.31070987	      3.14356203	      4.94929554	     57.48319270	    -18.09317564	     -6.89223411	     81.64184045	     44.66252473	      0.00000000	      0.00000000	    -16.81487649	    -10.65331069	     24.32112524	     30.88651029	     43.26599039	      0.00000000	      0.00000000
     40.38571429	     -4.74149491	     -5.76717727	     15.21889604	      0.98861711	      0.91901092	      0.49140143	      1.54292892	      3.58497522	    -19.85017888	     14.99112723	     14.99112723	     17.11364084	     -7.20933151	     -1.25403971	     28.19036980	     -7.13605044	      6.10690462	     24.49144453	     24.49144453	      6.58296737	     -4.06629525	     -0.81367991	     -8.13743990	      3.20709156	      4.81104523	     57.40480432	    -18.04116051	     -6.85842696	     81.61476173	     44.66250677	      0.00000000	      0.00000000	    -16.51121226	    -10.86764190	     24.27139413	     30.92290457	     43.27783285	      0.00000000	      0.00000000
